<svg xmlns="http://www.w3.org/2000/svg" width="71.61" height="18.62" viewBox="0 0 71.61 18.62"><defs><style>.cls-1{fill:#003082;}</style></defs><title>toeflAsset 28</title><g id="Layer_2" data-name="Layer 2"><g id="TOEFL"><path class="cls-1" d="M5,3H0L.53.29H13.67L13.13,3h-5L5.22,18.32H2.09Z"/><path class="cls-1" d="M19.23,18.62c-4.68,0-7.09-3.42-7.09-7.44a12.33,12.33,0,0,1,3.37-8.67A9.15,9.15,0,0,1,21.85,0c4.79,0,7.06,3.37,7.06,7.46A12.33,12.33,0,0,1,25.68,16a9,9,0,0,1-6.42,2.57ZM19.69,16a4.91,4.91,0,0,0,3.5-1.53c1.55-1.55,2.43-4.63,2.43-6.9s-.83-4.95-4.15-4.95A5,5,0,0,0,17.9,4.17,10.62,10.62,0,0,0,15.43,11c0,2.73,1.2,5,4.23,5Z"/><path class="cls-1" d="M40.63,10.3H34.16l-1,5.38h7.28l-.51,2.65H29.5l3.42-18h10l-.51,2.65H35.55l-.91,4.73h6.5Z"/><path class="cls-1" d="M45.82.29h9.92l-.51,2.65H48.44L47.45,8h6.31l-.51,2.62H47l-1.44,7.68H42.4Z"/><path class="cls-1" d="M58.53.29h3.1l-2.89,15.3H65.8l-.51,2.73H55.1Z"/><path class="cls-1" d="M71,17.62a2.13,2.13,0,1,1-3-3,2.13,2.13,0,1,1,3,3Zm-2.8-2.81a1.83,1.83,0,1,0,1.3-.54A1.77,1.77,0,0,0,68.18,14.81Zm1.25.12a1.81,1.81,0,0,1,.64.08.58.58,0,0,1,.36.59.51.51,0,0,1-.23.46.89.89,0,0,1-.34.11.57.57,0,0,1,.4.23.64.64,0,0,1,.13.36v.17c0,.05,0,.11,0,.17a.38.38,0,0,0,0,.12v0H70V17a.57.57,0,0,0-.22-.54,1,1,0,0,0-.46-.07H69v.92h-.41V14.93Zm.45.37a1.07,1.07,0,0,0-.5-.09H69v.85h.37a1.11,1.11,0,0,0,.39-.05.42.42,0,0,0,.09-.71Z"/></g></g></svg>